<svg width="606" height="622" viewBox="0 0 606 622" fill="none" xmlns="http://www.w3.org/2000/svg">
<path d="M301.658 157.083C301.658 157.083 187.115 166.447 127.142 125.412C67.1698 84.3472 80.8405 5.91948 80.8405 5.91948C80.8405 5.91948 195.384 -3.44411 255.394 37.5904C315.367 78.6556 301.658 157.083 301.658 157.083V157.083Z" stroke="#3BCEAC" stroke-opacity="0.75" stroke-width="10" stroke-linecap="round" stroke-linejoin="round"/>
<path d="M304.341 157.083C304.341 157.083 418.884 166.447 478.857 125.412C538.829 84.3472 525.159 5.91948 525.159 5.91948C525.159 5.91948 410.615 -3.44411 350.642 37.5904C290.67 78.6556 304.341 157.083 304.341 157.083V157.083Z" stroke="#3BCEAC" stroke-opacity="0.75" stroke-width="10" stroke-linecap="round" stroke-linejoin="round"/>
<path d="M5 280.403C5 272.287 8.92455 264.504 15.9103 258.765C22.896 253.027 32.3707 249.803 42.25 249.803H563.75C573.629 249.803 583.104 253.027 590.09 258.765C597.075 264.504 601 272.287 601 280.403V341.603C601 349.718 597.075 357.502 590.09 363.24C583.104 368.979 573.629 372.203 563.75 372.203H42.25C32.3707 372.203 22.896 368.979 15.9103 363.24C8.92455 357.502 5 349.718 5 341.603V280.403Z" stroke="#3BCEAC" stroke-opacity="0.75" stroke-width="10" stroke-linecap="round" stroke-linejoin="round"/>
<path d="M42.25 372.2H563.75L489.25 617H116.75L42.25 372.2Z" stroke="#3BCEAC" stroke-opacity="0.75" stroke-width="10" stroke-linecap="round" stroke-linejoin="round"/>
</svg>
